<svg width="100%" viewBox="0 0 680 340" role="img" xmlns="http://www.w3.org/2000/svg">
  <title>zenith — GitHub banner</title>
  <desc>Dark banner for the zenith CS 1.6 external multihack project</desc>
  <style>
    .bg { fill: #0a0c0f; }
    .grid { stroke: #1a2a1a; stroke-width: 0.5; fill: none; }
    .scanline { fill: #00ff41; opacity: 0.03; }
    .corner { fill: none; stroke: #00ff41; stroke-width: 2; }
    .circle-outer { fill: none; stroke: #00ff41; stroke-width: 1; opacity: 0.3; }
    .circle-inner { fill: none; stroke: #00ff41; stroke-width: 1; opacity: 0.6; }
    .crosshair { stroke: #00ff41; stroke-width: 1; opacity: 0.5; }
    .divider { stroke: #1a3a1a; stroke-width: 1; }
  </style>
  <rect width="680" height="340" class="bg"/>
  <line x1="80" y1="0" x2="80" y2="340" class="grid"/><line x1="160" y1="0" x2="160" y2="340" class="grid"/><line x1="240" y1="0" x2="240" y2="340" class="grid"/><line x1="320" y1="0" x2="320" y2="340" class="grid"/><line x1="400" y1="0" x2="400" y2="340" class="grid"/><line x1="480" y1="0" x2="480" y2="340" class="grid"/><line x1="560" y1="0" x2="560" y2="340" class="grid"/>
  <line x1="0" y1="60" x2="680" y2="60" class="grid"/><line x1="0" y1="120" x2="680" y2="120" class="grid"/><line x1="0" y1="180" x2="680" y2="180" class="grid"/><line x1="0" y1="240" x2="680" y2="240" class="grid"/><line x1="0" y1="300" x2="680" y2="300" class="grid"/>
  <circle cx="540" cy="170" r="60" class="circle-outer"/>
  <circle cx="540" cy="170" r="35" class="circle-inner"/>
  <circle cx="540" cy="170" r="4" fill="#00ff41"/>
  <line x1="540" y1="100" x2="540" y2="130" class="crosshair"/>
  <line x1="540" y1="210" x2="540" y2="240" class="crosshair"/>
  <line x1="470" y1="170" x2="500" y2="170" class="crosshair"/>
  <line x1="580" y1="170" x2="610" y2="170" class="crosshair"/>
  <line x1="540" y1="152" x2="540" y2="158" stroke="#00ff41" stroke-width="1.5" opacity="0.8"/>
  <line x1="540" y1="182" x2="540" y2="188" stroke="#00ff41" stroke-width="1.5" opacity="0.8"/>
  <line x1="522" y1="170" x2="528" y2="170" stroke="#00ff41" stroke-width="1.5" opacity="0.8"/>
  <line x1="552" y1="170" x2="558" y2="170" stroke="#00ff41" stroke-width="1.5" opacity="0.8"/>
  <path d="M40 40 L40 60 M40 40 L60 40" class="corner"/>
  <path d="M640 40 L640 60 M640 40 L620 40" class="corner"/>
  <path d="M40 300 L40 280 M40 300 L60 300" class="corner"/>
  <path d="M640 300 L640 280 M640 300 L620 300" class="corner"/>
  <text x="100" y="155" fill="#00ff41" font-family="Courier New, monospace" font-weight="700" font-size="80" letter-spacing="8">zenith</text>
  <text x="102" y="185" fill="#4a7a4a" font-family="Courier New, monospace" font-size="13" letter-spacing="2">external multihack — cs 1.6 build 8684 — written in go</text>
  <text x="42" y="30" fill="#4a7a4a" font-family="Courier New, monospace" font-size="10" letter-spacing="1">// target acquired</text>
  <text x="500" y="30" fill="#4a7a4a" font-family="Courier New, monospace" font-size="10" letter-spacing="1">build: 8684</text>
  <rect x="102" y="210" width="36" height="16" rx="2" fill="#00ff41"/>
  <text x="120" y="222" text-anchor="middle" fill="#0a0c0f" font-family="Courier New, monospace" font-weight="700" font-size="11">esp</text>
  <rect x="146" y="210" width="54" height="16" rx="2" fill="#00ff41"/>
  <text x="173" y="222" text-anchor="middle" fill="#0a0c0f" font-family="Courier New, monospace" font-weight="700" font-size="11">aimbot</text>
  <rect x="208" y="210" width="74" height="16" rx="2" fill="#00ff41"/>
  <text x="245" y="222" text-anchor="middle" fill="#0a0c0f" font-family="Courier New, monospace" font-weight="700" font-size="11">no recoil</text>
  <rect x="290" y="210" width="80" height="16" rx="2" fill="#00ff41"/>
  <text x="330" y="222" text-anchor="middle" fill="#0a0c0f" font-family="Courier New, monospace" font-weight="700" font-size="11">triggerbot</text>
  <line x1="40" y1="268" x2="460" y2="268" class="divider"/>
  <text x="42" y="285" fill="#4a7a4a" font-family="Courier New, monospace" font-size="10" letter-spacing="1">github.com/Cameliuu/zenith</text>
  <text x="42" y="298" fill="#4a7a4a" font-family="Courier New, monospace" font-size="10" letter-spacing="1">powered by veil — transparent overlay library</text>
</svg>
